<svg id="Layer_1" data-name="Layer 1" xmlns="http://www.w3.org/2000/svg" viewBox="0 0 266.7 76.91"><defs><style>.cls-1{fill:#fff;}.cls-2{fill:#cec8b2;}</style></defs><path class="cls-1" d="M102.35,61.83V59.14h1.48a10.59,10.59,0,0,0,2.59-.29,3.38,3.38,0,0,0,1.92-1.21,4.45,4.45,0,0,0,.73-2.79V19.33h-6.14c-1.88,0-3.18.53-3.9,1.57a8,8,0,0,0-1.35,3.68l-.32,2.75H94l.32-11.2h36l.33,11.2h-3.33l-.32-2.75a8,8,0,0,0-1.35-3.68c-.72-1-2-1.57-4-1.57h-6.21v35.2a5.14,5.14,0,0,0,.7,3,3.3,3.3,0,0,0,1.92,1.31,10,10,0,0,0,2.63.32h1.47v2.69Z"/><path class="cls-1" d="M143.18,62.47a11.28,11.28,0,0,1-5.08-1.12A8.12,8.12,0,0,1,134.55,58a11.51,11.51,0,0,1-1.29-5.73q0-5.11,3.62-7.55t11-2.69l5.31-.19V38a19,19,0,0,0-.39-4.07,4.7,4.7,0,0,0-1.66-2.78,6.18,6.18,0,0,0-3.9-1,6.45,6.45,0,0,0-3.72.89,4.26,4.26,0,0,0-1.69,2.47,14,14,0,0,0-.42,3.61,7.28,7.28,0,0,1-4.06-.93A3.45,3.45,0,0,1,136,33a4.46,4.46,0,0,1,1.57-3.58,9.73,9.73,0,0,1,4.19-2,25.86,25.86,0,0,1,5.76-.6q5.9,0,8.8,2.49c1.94,1.67,2.91,4.52,2.91,8.58V54.53a7.89,7.89,0,0,0,.39,2.79,2.45,2.45,0,0,0,1.28,1.41,5.6,5.6,0,0,0,2.3.41h.19v2.69H154.7l-1-5.5h-.51a40,40,0,0,1-2.62,3.16,9.67,9.67,0,0,1-3,2.18A10.38,10.38,0,0,1,143.18,62.47Zm1.48-4a8.84,8.84,0,0,0,4.51-1.09,7.46,7.46,0,0,0,2.94-3.1,9.9,9.9,0,0,0,1.06-4.7V44.42l-4.1.19a15.36,15.36,0,0,0-5.73,1.09,6.14,6.14,0,0,0-3,2.66,8.86,8.86,0,0,0-.9,4.19,8.16,8.16,0,0,0,.58,3.3,4.15,4.15,0,0,0,1.73,2A5.61,5.61,0,0,0,144.66,58.5Z"/><path class="cls-1" d="M167.57,61.83V59.14h.83a10.54,10.54,0,0,0,2.59-.29,3.38,3.38,0,0,0,1.92-1.21,4.45,4.45,0,0,0,.74-2.79V34.57a4.56,4.56,0,0,0-.74-2.85A3.39,3.39,0,0,0,171,30.5a11,11,0,0,0-2.59-.29h-.19V27.53h11.45v27a5.14,5.14,0,0,0,.71,3,3.3,3.3,0,0,0,1.92,1.31,10,10,0,0,0,2.62.32h.83v2.69Zm8.83-40.7a3.85,3.85,0,0,1-2.59-.9,3.83,3.83,0,0,1-1.06-3.07,3.82,3.82,0,0,1,1.06-3.11,4,4,0,0,1,2.59-.86,4,4,0,0,1,2.56.86,3.8,3.8,0,0,1,1.09,3.11A3.8,3.8,0,0,1,179,20.23,3.9,3.9,0,0,1,176.4,21.13Z"/><path class="cls-1" d="M187.41,61.83V59.14h.83a10,10,0,0,0,2.66-.32,3.31,3.31,0,0,0,1.88-1.31,5.14,5.14,0,0,0,.71-3V20.23a4.56,4.56,0,0,0-.74-2.85,3.38,3.38,0,0,0-1.92-1.21,10.54,10.54,0,0,0-2.59-.29h-.83V13.19H199.5V54.53a5.14,5.14,0,0,0,.71,3,3.3,3.3,0,0,0,1.92,1.31,10,10,0,0,0,2.62.32h.83v2.69Z"/><path class="cls-1" d="M224.78,62.47q-7,0-10.91-4.61t-3.94-12.93q0-9,3.72-13.5t10.49-4.54q6.21,0,9.76,3.84t3.56,11.45v3H216.14q.13,7,2.53,10.14a8.26,8.26,0,0,0,7,3.17,10.91,10.91,0,0,0,5.66-1.38,10.4,10.4,0,0,0,3.49-3.1,1.93,1.93,0,0,1,.83.77,2.43,2.43,0,0,1,.39,1.4,4.49,4.49,0,0,1-1.22,2.76,9.51,9.51,0,0,1-3.71,2.52A16.26,16.26,0,0,1,224.78,62.47ZM231,41.67a18.26,18.26,0,0,0-1.57-8.22A5.55,5.55,0,0,0,224,30.34a6.23,6.23,0,0,0-5.47,2.91c-1.3,2-2.06,4.75-2.27,8.42Z"/><path class="cls-1" d="M254.09,62.47a18.08,18.08,0,0,1-5.56-.77,8,8,0,0,1-3.68-2.27,5.46,5.46,0,0,1-1.32-3.74,4.46,4.46,0,0,1,.71-2.69,3.91,3.91,0,0,1,1.63-1.35,4.58,4.58,0,0,1,1.7-.38,10.59,10.59,0,0,0,1.5,5.73c1,1.6,2.81,2.4,5.41,2.4a7.58,7.58,0,0,0,5.21-1.63,5.38,5.38,0,0,0,1.83-4.2,4.76,4.76,0,0,0-.67-2.62,7.18,7.18,0,0,0-2.37-2,44.87,44.87,0,0,0-4.83-2.33,41.79,41.79,0,0,1-5.41-2.85,9.49,9.49,0,0,1-3.2-3.2A9,9,0,0,1,244,36a7.68,7.68,0,0,1,3.3-6.68A14.79,14.79,0,0,1,256,27a14.57,14.57,0,0,1,5.16.8,7.13,7.13,0,0,1,3.13,2.14,4.65,4.65,0,0,1,1.06,3,3.54,3.54,0,0,1-1.19,2.78,5,5,0,0,1-3.42,1.06,8.18,8.18,0,0,0-1.34-5,4.87,4.87,0,0,0-4.16-1.8q-3.27,0-4.68,1.44a5.08,5.08,0,0,0-1.4,3.68,4.36,4.36,0,0,0,.8,2.69,7.27,7.27,0,0,0,2.56,2q1.75.93,4.57,2.08a33.59,33.59,0,0,1,5.51,2.81,9.22,9.22,0,0,1,3.1,3.27,9.55,9.55,0,0,1,1,4.54q0,5-3.45,7.52T254.09,62.47Z"/><path class="cls-2" d="M53.4,47.35,29.55,23.5,5.7,47.35,29.55,71.21ZM31,19.22l26.7,26.71,1.43,1.42-1.43,1.43L31,75.48l-1.43,1.43-1.42-1.43L1.43,48.78,0,47.35l1.43-1.42,26.7-26.7,1.43-1.43Z"/><path class="cls-2" d="M77.39,46.6,53.54,22.75,29.69,46.6,53.54,70.45ZM55,18.47l26.71,26.7,1.42,1.43L81.67,48,55,74.73l-1.42,1.42-1.43-1.43L25.41,48,24,46.6l1.42-1.43,26.7-26.7,1.43-1.42Z"/><path class="cls-2" d="M41.84,1.43,56.92,16.51l1.43,1.43-1.43,1.42L42.59,33.69l-1.42,1.43-1.43-1.43L24.66,18.61l-1.43-1.43,1.43-1.42L39,1.43,40.41,0ZM52.65,17.94,40.41,5.7,28.93,17.18,41.17,29.42Z"/></svg>